<svg xmlns="http://www.w3.org/2000/svg" width="12.294" height="12.292" viewBox="0 0 12.294 12.292">
  <defs>
    <style>
      .cls-1 {
        fill: #0a9fde;
      }
    </style>
  </defs>
  <path id="Path_152" data-name="Path 152" class="cls-1" d="M936.5,2355.188c-.913,0-1.829.052-2.738-.01a6.506,6.506,0,0,1-5.864-5.128,7.121,7.121,0,0,1-.161-1.386c-.02-1.553-.01-3.107-.007-4.66a1.06,1.06,0,0,1,.842-1.051,1.033,1.033,0,0,1,1.162.607,1.426,1.426,0,0,1,.1.543c.008,1.466.005,2.933,0,4.4a4.463,4.463,0,0,0,1.531,3.491,4.154,4.154,0,0,0,2.7,1.1c1.6.036,3.2.014,4.8.018a1.083,1.083,0,0,1,1.088.719,1.053,1.053,0,0,1-.982,1.388c-.826.01-1.653,0-2.48,0Z" transform="translate(-927.726 -2342.931)"/>
</svg>
