<svg xmlns="http://www.w3.org/2000/svg" width="12.289" height="12.29" viewBox="0 0 12.289 12.29">
  <defs>
    <style>
      .cls-1 {
        fill: #0a9fde;
      }
    </style>
  </defs>
  <path id="Path_149" data-name="Path 149" class="cls-1" d="M968.694,2325.7a1.164,1.164,0,0,1-.721.794,1.057,1.057,0,0,1-1.386-1.028c-.011-.586,0-1.173,0-1.759,0-.973.013-1.946-.006-2.918a4.455,4.455,0,0,0-4.413-4.411c-1.539-.026-3.079-.008-4.618-.007a1.078,1.078,0,0,1-.971-.49,1.046,1.046,0,0,1,.515-1.552c.055-.022.108-.046.162-.069h5.281a1.031,1.031,0,0,0,.152.034,6.56,6.56,0,0,1,5.848,5.165c.067.318.107.641.16.961Z" transform="translate(-956.405 -2314.26)"/>
</svg>
