<svg xmlns="http://www.w3.org/2000/svg" width="41" height="41" viewBox="0 0 41 41">
  <defs>
    <style>
      .cls-1 {
        fill: none;
      }
    </style>
  </defs>
  <path id="Path_147" data-name="Path 147" class="cls-1" d="M968.694,2325.7v18.081c-.023-.054-.047-.108-.068-.162a1.046,1.046,0,0,0-1.554-.514,1.076,1.076,0,0,0-.489.971q0,2.171,0,4.339a5.432,5.432,0,0,1-.05.837,4.387,4.387,0,0,1-2.432,3.379,4.594,4.594,0,0,1-2.162.481c-1.466-.005-2.933,0-4.4,0a1.075,1.075,0,0,0-1.08.728,1.052,1.052,0,0,0,1.014,1.379q2.37.006,4.74,0a6.284,6.284,0,0,0,.8-.069,6.55,6.55,0,0,0,5.522-5.1c.07-.324.11-.655.164-.982v6.2h-41v-41h6.2c-.327.054-.657.095-.981.164a6.508,6.508,0,0,0-5.1,5.522,21.01,21.01,0,0,0-.081,2.315c-.012,1.079-.008,2.159,0,3.239a1.052,1.052,0,0,0,1.378,1,1.079,1.079,0,0,0,.729-1.081c0-1.539-.017-3.08.008-4.619a4.456,4.456,0,0,1,4.408-4.42c.84-.018,1.68,0,2.52-.006.72,0,1.44.008,2.16,0a1.056,1.056,0,0,0,1.03-1.385,1.166,1.166,0,0,0-.794-.722h18.082c-.054.023-.107.047-.162.069a1.046,1.046,0,0,0-.515,1.552,1.078,1.078,0,0,0,.971.49c1.539,0,3.079-.019,4.618.007a4.455,4.455,0,0,1,4.413,4.411c.019.972.005,1.945.006,2.918,0,.586-.008,1.173,0,1.759a1.057,1.057,0,0,0,1.386,1.028A1.164,1.164,0,0,0,968.694,2325.7ZM936.5,2355.188v.032c.827,0,1.654.008,2.48,0a1.053,1.053,0,0,0,.982-1.388,1.083,1.083,0,0,0-1.088-.719c-1.6,0-3.2.018-4.8-.018a4.154,4.154,0,0,1-2.7-1.1,4.463,4.463,0,0,1-1.531-3.491c0-1.467,0-2.934,0-4.4a1.426,1.426,0,0,0-.1-.543,1.033,1.033,0,0,0-1.162-.607,1.06,1.06,0,0,0-.842,1.051c0,1.553-.013,3.107.007,4.66a7.121,7.121,0,0,0,.161,1.386,6.506,6.506,0,0,0,5.864,5.128C934.672,2355.24,935.588,2355.188,936.5,2355.188Zm12.061-7.876a10.337,10.337,0,0,0,2.38-.329,10.121,10.121,0,0,0,4.463-2.465,1.075,1.075,0,0,0-.459-1.836,1.184,1.184,0,0,0-1.125.357,8.341,8.341,0,0,1-8.045,1.784,7.66,7.66,0,0,1-3.267-1.858,1.079,1.079,0,1,0-1.433,1.608A10.477,10.477,0,0,0,948.562,2347.312Zm1.808-13.752c0-1.273,0-2.546,0-3.819a1.049,1.049,0,0,0-.562-.969,1,1,0,0,0-1.081.026,1.088,1.088,0,0,0-.516,1q.006,3.7,0,7.4c0,.552-.214.773-.751.782-.24,0-.48,0-.72,0a1.082,1.082,0,0,0-1.042,1,1.059,1.059,0,0,0,.889,1.129,6.24,6.24,0,0,0,.977.024,2.854,2.854,0,0,0,1.634-.511,2.8,2.8,0,0,0,1.171-2.416C950.373,2335.987,950.37,2334.773,950.37,2333.56Zm-11.5-2.359h.019c0,.546-.028,1.093.009,1.637a.957.957,0,0,0,.682.857.924.924,0,0,0,1.011-.239,1.168,1.168,0,0,0,.332-.872c0-.926,0-1.852,0-2.778a1.7,1.7,0,0,0-.03-.318,1.026,1.026,0,0,0-1.211-.829,1.088,1.088,0,0,0-.808,1.1C938.862,2330.241,938.868,2330.721,938.868,2331.2Zm16.9-.015h0c0,.5-.009,1,0,1.5a1.019,1.019,0,1,0,2.036.034c.02-1.019.024-2.039,0-3.058a1.025,1.025,0,0,0-1.237-1,1.053,1.053,0,0,0-.793.987C955.754,2330.16,955.766,2330.673,955.766,2331.186Z" transform="translate(-927.694 -2314.26)"/>
</svg>
