<svg xmlns="http://www.w3.org/2000/svg" width="2.055" height="5.119" viewBox="0 0 2.055 5.119">
  <defs>
    <style>
      .cls-1 {
        fill: #0a9fde;
      }
    </style>
  </defs>
  <path id="Path_155" data-name="Path 155" class="cls-1" d="M938.868,2331.2c0-.48-.006-.96,0-1.44a1.088,1.088,0,0,1,.808-1.1,1.026,1.026,0,0,1,1.211.829,1.7,1.7,0,0,1,.03.318c0,.926,0,1.852,0,2.778a1.168,1.168,0,0,1-.332.872.924.924,0,0,1-1.011.239.957.957,0,0,1-.682-.857c-.037-.544-.009-1.091-.009-1.637Z" transform="translate(-938.866 -2328.637)"/>
</svg>
