<svg xmlns="http://www.w3.org/2000/svg" width="17.658" height="20.493" viewBox="0 0 17.658 20.493">
  <defs>
    <style>
      .cls-1 {
        fill: #95c5db;
      }
    </style>
  </defs>
  <path id="Path" class="cls-1" d="M15.35,0l-.082.508c-1.126,5.769-4.986,7.774-9.9,7.774h-2.5a1.222,1.222,0,0,0-1.209,1.03L.378,17.444.007,19.751a.646.646,0,0,0,.632.742h4.45a1.071,1.071,0,0,0,1.058-.907v-.22l.838-5.316v-.288a1.058,1.058,0,0,1,1.044-.907h.728c4.3,0,7.678-1.744,8.653-6.868A5.824,5.824,0,0,0,16.531.865,4.437,4.437,0,0,0,15.35,0Z"/>
</svg>
