<svg xmlns="http://www.w3.org/2000/svg" width="21.159" height="24.422" viewBox="0 0 21.159 24.422">
  <defs>
    <style>
      .cls-1 {
        fill: #253d80;
      }
    </style>
  </defs>
  <path id="Path" class="cls-1" d="M8.758,7.005a1.044,1.044,0,0,1,.591-.8.989.989,0,0,1,.453-.1h6.7a13.818,13.818,0,0,1,2.2.151l.577.11.522.137.261.082a6.154,6.154,0,0,1,.92.385,5.494,5.494,0,0,0-1.1-4.9C18.51.618,16.257,0,13.318,0H4.774A1.222,1.222,0,0,0,3.566,1.03L.008,23.57a.742.742,0,0,0,.728.852H6.011l1.374-8.392Z"/>
</svg>
