<svg xmlns="http://www.w3.org/2000/svg" width="21.374" height="25.603" viewBox="0 0 21.374 25.603">
  <defs>
    <style>
      .cls-1 {
        fill: #253d80;
      }
    </style>
  </defs>
  <path id="Path" class="cls-1" d="M5.645,25.6l.481-3.022H0L3.516.247a.288.288,0,0,1,.1-.179A.33.33,0,0,1,3.8,0h8.53c2.843,0,4.794.591,5.824,1.758a3.777,3.777,0,0,1,.92,1.744,6.071,6.071,0,0,1,0,2.4v.687l.481.275a3.42,3.42,0,0,1,.975.728,3.557,3.557,0,0,1,.783,1.772,7.87,7.87,0,0,1-.11,2.555,8.9,8.9,0,0,1-1.058,2.9,5.906,5.906,0,0,1-1.662,1.827,6.95,6.95,0,0,1-2.239,1,10.865,10.865,0,0,1-2.747.33h-.673a2.019,2.019,0,0,0-1.291.467,1.95,1.95,0,0,0-.673,1.209v.275l-.838,5.329v.206a.206.206,0,0,1,0,.11H9.944Z"/>
</svg>
