<svg xmlns="http://www.w3.org/2000/svg" width="13.49" height="16.359" viewBox="0 0 13.49 16.359">
  <defs>
    <style>
      .cls-1 {
        fill: #fff;
        opacity: 0.999;
      }
    </style>
  </defs>
  <path id="visa-logo-path" class="cls-1" d="M12.686,11.066C12.7,6.788,6.418,6.478,6.418,4.76c0-.567.6-1.168,1.871-1.323a9.04,9.04,0,0,1,4.416.7L13.49.7A13.005,13.005,0,0,0,9.3,0C4.883,0,1.815,2.165,1.815,5.258c0,2.285,2.227,3.557,3.91,4.313s2.339,1.289,2.32,1.976c0,1.065-1.385,1.547-2.676,1.564A10.027,10.027,0,0,1,.8,12.08L0,15.517a14.455,14.455,0,0,0,4.977.842c4.7,0,7.783-2.131,7.8-5.43"/>
</svg>
