<svg id="Group_38" data-name="Group 38" xmlns="http://www.w3.org/2000/svg" width="115.393" height="181.587" viewBox="0 0 115.393 181.587">
  <defs>
    <style>
      .cls-1 {
        fill: #f8d1b5;
      }

      .cls-2 {
        fill: #45409c;
      }

      .cls-3 {
        fill: #2d3069;
      }

      .cls-4 {
        fill: #de4b6f;
      }
    </style>
  </defs>
  <path id="Path_77" data-name="Path 77" class="cls-1" d="M196.862,450.442l8.555-4.812a1,1,0,0,1,1.466,1.1c-.532,2.2-1.688,5.5-4,6.968-1.925,1.218-4.2.627-5.916-.2A1.726,1.726,0,0,1,196.862,450.442Z" transform="translate(-91.519 -445.499)"/>
  <path id="Path_78" data-name="Path 78" class="cls-1" d="M196.518,451.7c.043-.259.926-3.673,1.346-5.294a.926.926,0,0,1,1.8.42l-.869,4.261Z" transform="translate(-91.259 -445.393)"/>
  <path id="Path_79" data-name="Path 79" class="cls-1" d="M196.83,450.056c2.408-4.144,5.754,2.65,5.754,2.65l-2.234,5.724-6.806-2.809C194.689,453.305,196,451.492,196.83,450.056Z" transform="translate(-92.703 -443.936)"/>
  <g id="Group_37" data-name="Group 37" transform="translate(0 11.686)">
    <path id="Path_80" data-name="Path 80" class="cls-1" d="M136.4,518.018,133,525.184a1,1,0,0,1-1.833-.055c-.835-2.108-1.793-5.47-.746-8A4.887,4.887,0,0,1,133,514.58,2.572,2.572,0,0,1,136.4,518.018Z" transform="translate(-123.586 -423.753)"/>
    <path id="Path_81" data-name="Path 81" class="cls-1" d="M134.837,515.268c.051.257.432,3.762.612,5.427a.925.925,0,0,1-1.833.245l-.7-4.292Z" transform="translate(-122.148 -423.298)"/>
    <path id="Path_82" data-name="Path 82" class="cls-1" d="M136.358,510.952a51.793,51.793,0,0,1-.322,6.452c-.64,4.75-4.842,2.434-4.842,2.434l-1.948-7.665Z" transform="translate(-123.932 -425.394)"/>
    <path id="Path_83" data-name="Path 83" class="cls-2" d="M167.748,499.3H148.8s-2.541,11.868-2.541,19.78,1.616,14.438,1.616,21.756c0,8.307-10.627,31.647-9.473,53.6h5.083C160.817,560.811,167.482,533.8,167.748,499.3Z" transform="translate(-119.526 -431.055)"/>
    <path id="Path_84" data-name="Path 84" class="cls-2" d="M175.175,499.3c12.931,40.757.924,57.756-4.158,95.137H165.01C160.388,562.2,172.633,533.912,153,499.3Z" transform="translate(-112.397 -431.055)"/>
    <path id="Path_85" data-name="Path 85" class="cls-2" d="M161.1,563.334l-.055,1.7c2.09,2.178,4.24,1.869,6.429,0l-.367-1.7Z" transform="translate(-108.488 -399.953)"/>
    <path id="Path_86" data-name="Path 86" class="cls-3" d="M150.661,569.67c.131-.043.021-.588-.016-.692a1.118,1.118,0,0,0-.357-.484,8.3,8.3,0,0,0-1.472-.783,7.461,7.461,0,0,1-1.991-1.449,5.624,5.624,0,0,1-.94-1.2,5.721,5.721,0,0,0-.747-1.474,2.493,2.493,0,0,0-1.824-.847,3.1,3.1,0,0,0-1.254.38,4.6,4.6,0,0,1-1.19.419,2.139,2.139,0,0,1-1.22-.107c-.239-.114-.548-.486-.842-.462s-.654.556-.764.729a5.076,5.076,0,0,0-.505,2.478.9.9,0,0,0,.48.767c.987.618,3.153,1.96,4.089,2.4C144.239,570.349,148.577,570.347,150.661,569.67Z" transform="translate(-119.905 -400.242)"/>
    <path id="Path_87" data-name="Path 87" class="cls-3" d="M179.325,567.589c-.869-2.355-4.934.646-11.551-4.5a.455.455,0,0,0-.694.174c-.608,1.75-2.8,2.162-5.751,1.93-.9.988-1.368,3.387-.059,3.974l9.811.254A15.727,15.727,0,0,0,179.325,567.589Z" transform="translate(-108.772 -400.116)"/>
    <path id="Path_88" data-name="Path 88" class="cls-4" d="M180.884,513.138c2.557-12.891,8.155-42.335-5.553-42.335l-19.087,1.584c-27.427,0-8.861,22.269-8.861,40.751Z" transform="translate(-118.106 -444.894)"/>
    <path id="Path_89" data-name="Path 89" class="cls-4" d="M226.51,453.364c-3.211,5.791-6.353,11.554-9.739,17.155l-1.252,2.108-.634,1.047-.159.261-.079.131c-.024.037-.036.048-.053.073l-.195.264a6.134,6.134,0,0,1-1.96,1.619,6.023,6.023,0,0,1-2.362.718l-2.15.168c-.805.068-1.616.11-2.423.166-3.236.18-6.472.389-9.721.5-3.248.125-6.506.141-9.765.19s-6.53.042-9.8-.007l-9.828-.208-.331-.007-.248.015a43.033,43.033,0,0,0-10.929,2.061,41.7,41.7,0,0,0-5.173,2.07,44.362,44.362,0,0,0-4.823,2.783,42.4,42.4,0,0,0-4.408,3.386c-.712.6-1.364,1.255-2.034,1.893-.328.325-.642.667-.961,1l-.477.5-.4.446c-1.038,1.144-2.049,2.313-3.065,3.477l-1.524,1.747-.8.923c-.357.417-.71.836-1.034,1.279a22.947,22.947,0,0,0-3.15,5.736,22.265,22.265,0,0,0-1.269,9.62l.083.805.088.622.174,1.183c.238,1.573.481,3.138.776,4.692,1.14,6.216,2.48,12.328,4.1,18.363l7.112-1.221c-.272-6.2-.722-12.34-.994-18.44l-.2-4.557-.042-1.134c0-.178-.018-.4-.015-.544l.009-.409a10.542,10.542,0,0,1,.18-1.609,11.39,11.39,0,0,1,2.743-5.571c.168-.195.357-.37.536-.548l.793-.777,1.658-1.621c1.105-1.082,2.217-2.157,3.3-3.263.287-.3.519-.511.749-.729s.464-.449.7-.663c.495-.413.963-.853,1.48-1.235a28.9,28.9,0,0,1,3.162-2.177,31.048,31.048,0,0,1,3.4-1.732,29.552,29.552,0,0,1,11.009-2.588l-.524.007c1.694.059,3.386.144,5.083.165s3.393.036,5.091.03q5.1,0,10.207-.152c3.408-.107,6.815-.367,10.226-.639,3.408-.294,6.824-.608,10.223-1.123.85-.126,1.7-.241,2.549-.382l1.275-.2.637-.1.9-.163a17.922,17.922,0,0,0,6.818-2.952,17.69,17.69,0,0,0,4.928-5.493c.15-.269.291-.542.434-.814l.1-.2.068-.146.135-.29.538-1.163,1.055-2.334a158.8,158.8,0,0,0,7.015-19.2Z" transform="translate(-125.669 -453.364)"/>
    <g id="Group_36" data-name="Group 36" transform="translate(37.913 1.162)">
      <path id="Path_90" data-name="Path 90" class="cls-1" d="M152.136,463.724l.517-.064c-.012-4.793,3.133-7.424,7.529-6.833,4.995.673,5.944,4.638,6.449,6.956.634,2.909.361,8.944-3.392,9.687a8.8,8.8,0,0,1-10.082-6.338,3.205,3.205,0,0,1-1.9-1.975A1.072,1.072,0,0,1,152.136,463.724Z" transform="translate(-151.188 -452.884)"/>
      <path id="Path_91" data-name="Path 91" class="cls-1" d="M159.226,465.738a57.807,57.807,0,0,0,1.976,9.243c.425,1.625-7.125,2.3-6.947.511a47.167,47.167,0,0,0,.01-10.106Z" transform="translate(-149.7 -448.688)"/>
      <path id="Path_92" data-name="Path 92" class="cls-3" d="M166.661,468.073s1.983,6.987-3.309,7.635-8.029-2.074-8.243-3.487-1.246-6.553-2.689-7.3l-.516.064s-1.252-5,1.977-7.033,4.45.189,8.191-2.9,7.844,2.4,4.671,5.677-6.555-1.92-9.933-.132-1.979,5.094-1.3,6.172,2.667,3.224,4.82,2.628,2.532-1.943,3.6-2.074S165.413,468.328,166.661,468.073Z" transform="translate(-150.956 -454.146)"/>
    </g>
  </g>
</svg>
