<svg id="Group_41" data-name="Group 41" xmlns="http://www.w3.org/2000/svg" width="121.328" height="109.437" viewBox="0 0 121.328 109.437">
  <defs>
    <style>
      .cls-1 {
        fill: #45409c;
      }

      .cls-2 {
        fill: #2d3069;
      }

      .cls-3 {
        fill: #de4b6f;
      }

      .cls-4 {
        fill: #f8d1b5;
      }

      .cls-5 {
        fill: #fff;
      }

      .cls-6 {
        fill: #e3ae88;
      }

      .cls-7 {
        fill: #4e48b0;
      }

      .cls-8 {
        fill: #c0b3e6;
      }
    </style>
  </defs>
  <path id="Path_93" data-name="Path 93" class="cls-1" d="M770.41,588.639c14.093,2.672,28.74,3.695,43.775,3.96a230.087,230.087,0,0,0,43.775-2.918l-45.072,21.843Z" transform="translate(-754.565 -512.36)"/>
  <path id="Path_94" data-name="Path 94" class="cls-2" d="M815.581,515.321c-7.836-.424-11.861,14.084-15.462,14.084s-6.884,2.648-6.884,4.766-2.965,5.4-4.341,5.4-7.2.635-7.2,4.554,2.965,4.236,2.965,6.672-2.648,4.236-2.648,7.1,9.425,2.436,9.425,5.825,1.377,8.1,8.1,8.1,7.254,3.654,14.455,3.654,19.8-4.554,24.146-4.554,11.966-9.107,11.966-11.967-2.859-3.177-2.859-6.143,2.859-2.86,2.859-6.036-4.129-5.083-6.883-5.718-6.884-3.6-6.884-5.824-3.812-8.9-7.095-8.9-3.283-4.554-3.283-5.4S824.37,514.792,815.581,515.321Z" transform="translate(-754.115 -515.284)"/>
  <path id="Path_95" data-name="Path 95" class="cls-3" d="M804.089,590.767c-.885-7.666-6.329-18.94-10.661-31.849a12.167,12.167,0,0,1,10.219-15.94,91.968,91.968,0,0,1,20.551.152,12.2,12.2,0,0,1,10.3,15.377c-3.6,12.994-8.193,22.788-9.512,31.131Z" transform="translate(-753.672 -514.2)"/>
  <path id="Path_96" data-name="Path 96" class="cls-4" d="M814.184,523.36c-4.057.34-7.254,4.076-7.254,8.644,0,4.793,3.518,8.678,7.856,8.678a8,8,0,0,0,7.514-6.145C815.775,532.755,813.014,529.057,814.184,523.36Z" transform="translate(-753.109 -514.962)"/>
  <path id="Path_97" data-name="Path 97" class="cls-4" d="M777.81,562.558c-1.127,1.465-2.228,2.956-3.313,4.447l-.813,1.126-.2.28-.288.424c-.194.3-.4.584-.576.889a16.212,16.212,0,0,0-1.643,3.863,15.4,15.4,0,0,0-.008,8.226,14.52,14.52,0,0,0,1.618,3.787,15.772,15.772,0,0,0,1.16,1.694l.67.78.16.186.136.127.254.263c1.364,1.406,2.8,2.728,4.287,3.99a69.75,69.75,0,0,0,9.505,6.583c1.651.957,3.33,1.855,5.032,2.677q.983.448,1.967.872a3.677,3.677,0,0,0,3.427-6.476,72.663,72.663,0,0,1-13.307-10.773c-1.152-1.194-2.271-2.414-3.3-3.7l-.2-.237-.094-.119-.051-.076c-.059-.094-.127-.186-.186-.28a4.783,4.783,0,0,1-.3-.584,4.216,4.216,0,0,1-.365-1.237,4.811,4.811,0,0,1,.813-3.592c.06-.085.136-.161.2-.237l.094-.127.211-.255.839-1.025c1.126-1.355,2.262-2.685,3.414-4.016.872-1.028,1.759-2.037,2.65-3.046l-8.7-8.272C779.844,559.99,778.814,561.269,777.81,562.558Z" transform="translate(-754.565 -513.553)"/>
  <path id="Path_98" data-name="Path 98" class="cls-3" d="M846.226,555.024l-1.737-2.227-1.093-1.3c-.382-.423-.771-.83-1.169-1.245a31.169,31.169,0,0,0-5.3-4.3,29.91,29.91,0,0,0-9.413-3.982,31.529,31.529,0,0,0-6.811-.848l-2.788-.008H811.16c-.474.008-.83,0-1.457.025a31.022,31.022,0,0,0-6.659.89,29.733,29.733,0,0,0-3.381,1.025,30.622,30.622,0,0,0-11.377,7.387c-.212.22-.373.4-.526.559l-.474.517-.94,1.042-1.855,2.092q-1.831,2.11-3.609,4.261c-.136.165-.265.335-.4.5l8.7,8.272c.268-.3.527-.617.8-.918q1.741-1.97,3.532-3.864l1.3-1.347.517-.542.907-.933.457-.466c.16-.16.313-.313.423-.407a18.486,18.486,0,0,1,6.8-4.3,19.175,19.175,0,0,1,3.957-.933c.39-.051.8-.093,1.194-.11.28-.017.559-.033.839-.033l2.61-.026,5.4-.076,2.635-.025c.119,0,.245,0,.364.008.559.008,1.119.033,1.678.093a19.865,19.865,0,0,1,7.777,2.576,19.037,19.037,0,0,1,3.346,2.474l.754.729.178.194.542.584,1.677,1.983c1.8,2.2,3.566,4.424,5.237,6.7l9.432-6.445C849.867,560,848.106,557.455,846.226,555.024Z" transform="translate(-754.163 -514.254)"/>
  <path id="Path_99" data-name="Path 99" class="cls-4" d="M855.2,572.517a14.985,14.985,0,0,0-.678-2.059,10.161,10.161,0,0,0-.44-.991c-.153-.314-.347-.712-.441-.872q-1.36-2.543-2.864-4.99c-.372-.611-.757-1.215-1.141-1.818l-9.432,6.445c.359.489.719.977,1.067,1.472q1.474,2.109,2.838,4.278l.229.373a3.365,3.365,0,0,1,.178.313,4.055,4.055,0,0,1,.28.652,5.63,5.63,0,0,1,.331,1.424,5.739,5.739,0,0,1-.533,3,16.294,16.294,0,0,1-1.144,1.822c-.458.678-.949,1.33-1.44,1.99A67.382,67.382,0,0,1,829.419,595.6a3.594,3.594,0,0,0,3.863,6.03q.978-.522,1.95-1.073c1.644-.958,3.254-2,4.846-3.093a60.814,60.814,0,0,0,9.074-7.591c.7-.728,1.373-1.483,2.033-2.27a28.015,28.015,0,0,0,2.067-2.762,16.073,16.073,0,0,0,2.406-8.049A15.878,15.878,0,0,0,855.2,572.517Z" transform="translate(-752.268 -513.43)"/>
  <path id="Path_100" data-name="Path 100" class="cls-4" d="M826.646,541.978c-.221.559-.449,1.11-.695,1.651a50.217,50.217,0,0,1-5.905,10.091,47.389,47.389,0,0,1-3.963,4.616,3.277,3.277,0,0,1-4.969-.32q-1.541-2.042-2.912-4.144a60.517,60.517,0,0,1-5.6-10.75c-.152-.357-.288-.721-.423-1.085a31.022,31.022,0,0,1,6.659-.89c.627-.025.983-.017,1.457-.025h6.752l2.788.008a31.529,31.529,0,0,1,6.811.848Z" transform="translate(-753.298 -514.254)"/>
  <g id="Group_39" data-name="Group 39" transform="translate(29.946 76.788)">
    <path id="Path_101" data-name="Path 101" class="cls-5" d="M797.521,608.594l-7.9-.809a5.133,5.133,0,1,0,.079,10.2,77.71,77.71,0,0,0,9.081-1.665,21.931,21.931,0,0,1,4.5-.618c.024,0-1.182-7.581-1.182-7.581A11.558,11.558,0,0,1,797.521,608.594Z" transform="translate(-783.97 -588.385)"/>
    <path id="Path_102" data-name="Path 102" class="cls-6" d="M818.894,602.093c-7.133,2.572-13.592,4.893-16.972,6.107-.167.059-.341.1-.512.152l1.206,7.581c4.2-.153,11.455.016,19.059-.255Z" transform="translate(-783.274 -588.611)"/>
    <path id="Path_103" data-name="Path 103" class="cls-7" d="M849.2,591.328c-3.565,1.38-18.332,6.725-30.972,11.281l2.782,13.585a97.1,97.1,0,0,0,17.9-1.967c17.313-4.087,35.084-11.764,35.084-19.538S855.709,588.807,849.2,591.328Z" transform="translate(-782.604 -589.128)"/>
  </g>
  <g id="Group_40" data-name="Group 40" transform="translate(0 75.757)">
    <path id="Path_104" data-name="Path 104" class="cls-7" d="M780.114,591.114c-6.368-2.866-24.519-5.733-24.935,2.03s16.919,16.379,33.988,21.388c7.163,2.1,16.827,2.948,24.915,3.456l3.19-11.067C804.047,601.344,784.273,592.986,780.114,591.114Z" transform="translate(-755.172 -588.137)"/>
    <path id="Path_105" data-name="Path 105" class="cls-4" d="M827.913,611.13a11.574,11.574,0,0,1-3.113-.806c-2.177-.917-5.667-2.387-9.785-4.123l-3.19,11.067c4.807.3,9.058.486,11.893.742a23.038,23.038,0,0,1,2.774.425A8.663,8.663,0,0,0,827.913,611.13Z" transform="translate(-752.913 -587.417)"/>
    <path id="Path_106" data-name="Path 106" class="cls-5" d="M837.222,610.653l-7.927.386a11.552,11.552,0,0,1-1.945-.086,8.663,8.663,0,0,1-1.422,7.306c.568.123,1.132.261,1.689.432a77.929,77.929,0,0,0,8.98,2.148,5.133,5.133,0,1,0,.624-10.185Z" transform="translate(-752.351 -587.24)"/>
  </g>
  <rect id="Rectangle_94" data-name="Rectangle 94" class="cls-8" width="44.295" height="30.38" rx="2.058" transform="translate(38.765 58.74)"/>
  <path id="Path_107" data-name="Path 107" class="cls-4" d="M812.158,537.65a30.838,30.838,0,0,1-2.158,8.28c1.053,2.122,6.9,2.037,8.616-.163a26.663,26.663,0,0,1-1.59-8.493Z" transform="translate(-752.986 -514.408)"/>
</svg>
