<svg id="Group_21" data-name="Group 21" xmlns="http://www.w3.org/2000/svg" xmlns:xlink="http://www.w3.org/1999/xlink" width="168.923" height="336.005" viewBox="0 0 168.923 336.005">
  <defs>
    <style>
      .cls-1 {
        fill: url(#linear-gradient);
      }

      .cls-2 {
        fill: #2d3069;
      }

      .cls-3 {
        fill: #4e48b0;
      }

      .cls-4 {
        fill: #f8d1b5;
      }

      .cls-5 {
        fill: #de4b6f;
      }

      .cls-6 {
        fill: #45409c;
      }

      .cls-7 {
        fill: #c74363;
      }

      .cls-8 {
        fill: #fff;
      }

      .cls-9 {
        fill: #c0b3e6;
      }
    </style>
    <linearGradient id="linear-gradient" x1="0.062" y1="0.829" x2="1.896" y2="-0.547" gradientUnits="objectBoundingBox">
      <stop offset="0" stop-color="#dfdcf5"/>
      <stop offset="1" stop-color="#fff"/>
    </linearGradient>
  </defs>
  <ellipse id="Ellipse_41" data-name="Ellipse 41" class="cls-1" cx="84.461" cy="20.252" rx="84.461" ry="20.252" transform="translate(0 295.502)"/>
  <g id="Group_20" data-name="Group 20" transform="translate(26.727 0)">
    <path id="Path_24" data-name="Path 24" class="cls-2" d="M442.477,405.617c-13.109,6.265-27.722,4.719-43.781-4.335,10.7-11.461,7.2-28.975,24.318-27.6C441.578,375.167,432.6,399.043,442.477,405.617Z" transform="translate(-363.164 -373.604)"/>
    <g id="Group_18" data-name="Group 18" transform="translate(104.917 30.367)">
      <rect id="Rectangle_92" data-name="Rectangle 92" class="cls-2" width="17.348" height="27.757" rx="1.352" transform="matrix(-0.863, -0.506, 0.506, -0.863, 14.966, 32.719)"/>
      <path id="Path_25" data-name="Path 25" class="cls-3" d="M482.285,410.755a1.781,1.781,0,1,1-.3,2.5A1.782,1.782,0,0,1,482.285,410.755Z" transform="translate(-464.775 -402.505)"/>
    </g>
    <path id="Path_26" data-name="Path 26" class="cls-4" d="M456.715,455.772a1.434,1.434,0,0,0,2.529.571l16.513-21.137a13.409,13.409,0,0,0,2.821-7.422c.133-2.156.212-4.312.249-6.472a4.744,4.744,0,0,1,9.4-.828q.568,2.829,1.052,5.591a16.223,16.223,0,0,1-1.5,10.12,396.352,396.352,0,0,1-21.488,37.339,7.851,7.851,0,0,1-11.868,1.58c-6.219-5.8-10.446-13.517-13.491-22.4q7.021-2.087,13.922-4.489Q455.83,451.97,456.715,455.772Z" transform="translate(-361.48 -371.887)"/>
    <path id="Path_27" data-name="Path 27" class="cls-4" d="M453.321,445.094q-1.265-3.538-2.63-7.007C451.595,440.4,452.477,442.735,453.321,445.094Z" transform="translate(-361.091 -371.033)"/>
    <path id="Path_28" data-name="Path 28" class="cls-5" d="M384.44,432.279c1.874-2.4,3.807-4.7,5.814-6.877A42.182,42.182,0,0,1,417.7,411.729a56.363,56.363,0,0,1,19.468,1.571,18.4,18.4,0,0,1,12.461,11.34q2.925,7.9,5.318,16.094-6.94,2.429-14.023,4.536a177.156,177.156,0,0,1-3.562-18.043q-22.787-6-36.786,8.935-2.048,2.544-4.09,5.288Q390.38,437.035,384.44,432.279Z" transform="translate(-363.732 -372.093)"/>
    <path id="Path_29" data-name="Path 29" class="cls-6" d="M390.653,450.089c1.349-2.355,2.7-4.648,4.069-6.858C393.357,445.441,392,447.734,390.653,450.089Z" transform="translate(-363.484 -370.828)"/>
    <path id="Path_30" data-name="Path 30" class="cls-7" d="M382.142,434.745c.138-.187.278-.37.416-.556q1.019-1.374,2.062-2.707,5.93,4.748,12.047,9.171c-1.554,2.083-3.1,4.248-4.653,6.476q-6.128-4.43-12.09-9.194C380.659,436.865,381.385,435.78,382.142,434.745Z" transform="translate(-363.912 -371.297)"/>
    <path id="Path_31" data-name="Path 31" class="cls-6" d="M382.315,435.451c-.6.954-1.211,1.91-1.807,2.883C381.1,437.36,381.7,436.394,382.315,435.451Z" transform="translate(-363.889 -371.138)"/>
    <path id="Path_32" data-name="Path 32" class="cls-6" d="M378.272,442.145q.962-1.7,1.959-3.354C379.568,439.888,378.94,441.033,378.272,442.145Z" transform="translate(-363.978 -371.005)"/>
    <path id="Path_33" data-name="Path 33" class="cls-7" d="M452.927,440.1c.7,2.387,1.374,4.787,2.008,7.209q-6.894,2.4-13.922,4.49-.618-1.8-1.172-3.661c-.017-.053-.033-.106-.049-.159-.37-1.251-.7-2.54-1.034-3.829q7.074-2.1,14.023-4.536C452.829,439.775,452.879,439.936,452.927,440.1Z" transform="translate(-361.567 -370.972)"/>
    <path id="Path_34" data-name="Path 34" class="cls-6" d="M437.432,443.168c.471,1.243.913,2.5,1.391,3.713Q438.1,445.056,437.432,443.168Z" transform="translate(-361.62 -370.831)"/>
    <path id="Path_35" data-name="Path 35" class="cls-6" d="M450.52,437.63c.061.157.116.318.178.475C450.636,437.947,450.572,437.792,450.52,437.63Z" transform="translate(-361.098 -371.051)"/>
    <path id="Path_36" data-name="Path 36" class="cls-4" d="M378.393,630.14c1.65-10.784,4.1-29.116,8.014-36.816s10.978-11.306,4.537-38.015c-.381-1.58-.683-3.112-.919-4.6a276.041,276.041,0,0,0,33.2,3.05c-8.025,38.957-26.266,75.938-49.47,124.355l-8.147-3.772S376.653,641.51,378.393,630.14Z" transform="translate(-364.483 -366.544)"/>
    <path id="Path_37" data-name="Path 37" class="cls-4" d="M430.533,553.805a206.286,206.286,0,0,0,31.59-2.773c3.146,38.463-.088,79.117,2.046,129.417l-8.972.332s-6.011-33.994-8.639-45.193c-2.174-9.264-7.976-28.579-7.976-37.218s7.976-18.941-6.646-42.2C431.438,555.373,430.976,554.587,430.533,553.805Z" transform="translate(-361.895 -366.531)"/>
    <path id="Path_38" data-name="Path 38" class="cls-4" d="M430.364,400.674c-5.3,8.118-14.971,4.128-18.621-2.449A4.771,4.771,0,0,1,414,391.593a26.3,26.3,0,0,0,11.591-10.087q1.067.788,2.029,1.618A13.5,13.5,0,0,1,430.364,400.674Z" transform="translate(-362.667 -373.289)"/>
    <path id="Path_39" data-name="Path 39" class="cls-4" d="M423.931,402.146a44.683,44.683,0,0,0,3.261,11.958c-1.49,3.09-9.957,3.064-12.483-.095a38.648,38.648,0,0,0,2.163-12.328Z" transform="translate(-362.525 -372.485)"/>
    <path id="Path_40" data-name="Path 40" class="cls-5" d="M448.494,465.348l-42.18-1.4c-.159-6.627-4.132-14.129-7.939-23.578a13.744,13.744,0,0,1,9.932-18.605c10.035-2.08,19.129-2.147,27.032.338a13.817,13.817,0,0,1,8.381,7.525C449.194,441.694,451,453.608,448.494,465.348Z" transform="translate(-363.217 -371.745)"/>
    <path id="Path_41" data-name="Path 41" class="cls-6" d="M407.009,462.276c-13.093,13.865-11.141,65.464-27.062,104.5,35.089,7.725,61.71,9.2,91.8,3.009-12.478-47.834-9.567-77.128-22.557-106.117Z" transform="translate(-363.911 -370.069)"/>
    <path id="Path_42" data-name="Path 42" class="cls-4" d="M408.583,476.29l6.78-2.532-.733,6.7Z" transform="translate(-362.77 -369.611)"/>
    <g id="Group_19" data-name="Group 19" transform="translate(46.456 96.694)">
      <path id="Path_43" data-name="Path 43" class="cls-8" d="M409.707,491.145l12,4.14a.75.75,0,0,0,.935-.415l7.594-17.828-16-5.519-5.013,18.719A.751.751,0,0,0,409.707,491.145Z" transform="translate(-409.201 -466.395)"/>
      <path id="Path_44" data-name="Path 44" class="cls-9" d="M415.878,467.738,431.128,473a.881.881,0,0,1,.593.787l.166,3.2a.566.566,0,0,1-.75.564l-18.075-6.235a.566.566,0,0,1-.242-.907l2.106-2.419A.881.881,0,0,1,415.878,467.738Z" transform="translate(-409.063 -466.547)"/>
      <path id="Rectangle_93" data-name="Rectangle 93" class="cls-9" d="M0,0H8.924a0,0,0,0,1,0,0V2.043a.46.46,0,0,1-.46.46h-8A.46.46,0,0,1,0,2.043V0A0,0,0,0,1,0,0Z" transform="translate(18.659 5.276) rotate(-160.967)"/>
    </g>
    <path id="Path_45" data-name="Path 45" class="cls-2" d="M463.291,672.212a16.317,16.317,0,0,1-9.449,1.054l-1.267,8.333h5.357l.892-1.07a2.355,2.355,0,0,1,2.447-.759l10.484,2.95a1.935,1.935,0,0,0,1.223-3.667C468.929,677.556,465.564,675.4,463.291,672.212Z" transform="translate(-361.016 -361.7)"/>
    <path id="Path_46" data-name="Path 46" class="cls-2" d="M375.09,670.778l4.99,7.642s4.514,3.114.721,4.585c-2.969,1.151-8.651-3.007-10.667-5.636a3.1,3.1,0,0,0-2.46-1.207H366.22a1.672,1.672,0,0,1-1.672-1.557,13.531,13.531,0,0,1,2.025-7.68C367.181,669.6,370.729,670.44,375.09,670.778Z" transform="translate(-364.526 -361.911)"/>
    <path id="Path_47" data-name="Path 47" class="cls-4" d="M368.828,457.507a158.945,158.945,0,0,1,11.589-19.82q5.955,4.756,12.09,9.194c-2.643,3.8-5.28,7.8-7.913,11.934a1.964,1.964,0,0,0,.329,2.515c8.434,7.5,20.721,13.937,34.423,19.988a5.6,5.6,0,0,1-3.844,10.5c-15.9-4.657-30.188-10.535-42.176-18.164A12.579,12.579,0,0,1,368.828,457.507Z" transform="translate(-364.406 -371.049)"/>
    <path id="Path_48" data-name="Path 48" class="cls-8" d="M422.539,427.829a2.02,2.02,0,1,1,1.952,2.086A2.021,2.021,0,0,1,422.539,427.829Z" transform="translate(-362.213 -371.52)"/>
    <path id="Path_49" data-name="Path 49" class="cls-8" d="M423.981,435.65a2.019,2.019,0,1,1,1.952,2.085A2.02,2.02,0,0,1,423.981,435.65Z" transform="translate(-362.156 -371.208)"/>
    <path id="Path_50" data-name="Path 50" class="cls-8" d="M424.428,444.167a2.019,2.019,0,1,1,1.952,2.085A2.02,2.02,0,0,1,424.428,444.167Z" transform="translate(-362.138 -370.869)"/>
  </g>
</svg>
