<svg xmlns="http://www.w3.org/2000/svg" xmlns:xlink="http://www.w3.org/1999/xlink" width="113.95" height="68.159" viewBox="0 0 113.95 68.159">
  <defs>
    <style>
      .cls-1 {
        fill: none;
      }

      .cls-2 {
        fill: #45409c;
      }

      .cls-3 {
        clip-path: url(#clip-path);
      }

      .cls-4 {
        fill: url(#linear-gradient);
      }

      .cls-5 {
        fill: #7f79d9;
      }

      .cls-6 {
        fill: #fff;
      }
    </style>
    <clipPath id="clip-path">
      <rect id="Rectangle_97" data-name="Rectangle 97" class="cls-1" width="59.634" height="68.158"/>
    </clipPath>
    <linearGradient id="linear-gradient" x1="0.768" y1="0.771" x2="0.193" y2="0.19" gradientUnits="objectBoundingBox">
      <stop offset="0" stop-color="#a3b8f0"/>
      <stop offset="1" stop-color="#f0e3fd"/>
    </linearGradient>
  </defs>
  <g id="Group_45" data-name="Group 45" transform="translate(0)">
    <path id="Path_135" data-name="Path 135" class="cls-2" d="M994.834,665.317H895.952a7.533,7.533,0,1,1,0-15.067h98.882a7.533,7.533,0,1,1,0,15.067Z" transform="translate(-888.418 -597.158)"/>
    <g id="Group_44" data-name="Group 44" transform="translate(27.039 0)">
      <g id="Group_43" data-name="Group 43" class="cls-3">
        <g id="Group_42" data-name="Group 42" transform="translate(0.001 2.261)">
          <path id="Path_136" data-name="Path 136" class="cls-4" d="M959.753,714.226H911.988a5.929,5.929,0,0,1-5.934-5.927V623.032a5.935,5.935,0,0,1,5.934-5.935h47.766a5.937,5.937,0,0,1,5.935,5.935V708.3A5.93,5.93,0,0,1,959.753,714.226Z" transform="translate(-906.054 -617.097)"/>
          <rect id="Rectangle_95" data-name="Rectangle 95" class="cls-5" width="12.653" height="97.129" transform="translate(36.429 0.001)"/>
          <path id="Rectangle_96" data-name="Rectangle 96" class="cls-6" d="M2.8,0H42.1a2.8,2.8,0,0,1,2.8,2.8V8.238a2.8,2.8,0,0,1-2.8,2.8H2.8A2.8,2.8,0,0,1,0,8.239V2.8A2.8,2.8,0,0,1,2.8,0Z" transform="translate(29.816 26.115) rotate(90)"/>
        </g>
      </g>
    </g>
  </g>
</svg>
