<svg xmlns="http://www.w3.org/2000/svg" width="15.093" height="4.665" viewBox="0 0 15.093 4.665">
  <defs>
    <style>
      .cls-1 {
        fill: #0a9fde;
      }
    </style>
  </defs>
  <path id="Path_153" data-name="Path 153" class="cls-1" d="M948.562,2347.312a10.477,10.477,0,0,1-7.486-2.739,1.079,1.079,0,1,1,1.433-1.608,7.66,7.66,0,0,0,3.267,1.858,8.341,8.341,0,0,0,8.045-1.784,1.184,1.184,0,0,1,1.125-.357,1.075,1.075,0,0,1,.459,1.836,10.121,10.121,0,0,1-4.463,2.465A10.337,10.337,0,0,1,948.562,2347.312Z" transform="translate(-940.667 -2342.647)"/>
</svg>
