<svg xmlns="http://www.w3.org/2000/svg" width="4.677" height="11.508" viewBox="0 0 4.677 11.508">
  <defs>
    <style>
      .cls-1 {
        fill: #0a9fde;
      }
    </style>
  </defs>
  <path id="Path_154" data-name="Path 154" class="cls-1" d="M950.37,2333.56c0,1.213,0,2.427,0,3.64a2.8,2.8,0,0,1-1.171,2.416,2.854,2.854,0,0,1-1.634.511,6.24,6.24,0,0,1-.977-.024,1.059,1.059,0,0,1-.889-1.129,1.082,1.082,0,0,1,1.042-1c.24-.006.48,0,.72,0,.537-.009.751-.23.751-.782q0-3.7,0-7.4a1.088,1.088,0,0,1,.516-1,1,1,0,0,1,1.081-.026,1.049,1.049,0,0,1,.562.969C950.372,2331.014,950.37,2332.287,950.37,2333.56Z" transform="translate(-945.694 -2328.626)"/>
</svg>
