<svg xmlns="http://www.w3.org/2000/svg" width="12.29" height="12.289" viewBox="0 0 12.29 12.289">
  <defs>
    <style>
      .cls-1 {
        fill: #0a9fde;
      }
    </style>
  </defs>
  <path id="Path_150" data-name="Path 150" class="cls-1" d="M968.694,2349.061c-.054.327-.094.658-.164.982a6.55,6.55,0,0,1-5.522,5.1,6.284,6.284,0,0,1-.8.069q-2.37.01-4.74,0a1.052,1.052,0,0,1-1.014-1.379,1.075,1.075,0,0,1,1.08-.728c1.467,0,2.934-.005,4.4,0a4.594,4.594,0,0,0,2.162-.481,4.387,4.387,0,0,0,2.432-3.379,5.432,5.432,0,0,0,.05-.837q.008-2.169,0-4.339a1.076,1.076,0,0,1,.489-.971,1.046,1.046,0,0,1,1.554.514c.021.054.045.108.068.162Z" transform="translate(-956.404 -2342.933)"/>
</svg>
