<svg xmlns="http://www.w3.org/2000/svg" width="12.297" height="12.289" viewBox="0 0 12.297 12.289">
  <defs>
    <style>
      .cls-1 {
        fill: #0a9fde;
      }
    </style>
  </defs>
  <path id="Path_148" data-name="Path 148" class="cls-1" d="M939.171,2314.26a1.166,1.166,0,0,1,.794.722,1.056,1.056,0,0,1-1.03,1.385c-.72.011-1.44,0-2.16,0-.84,0-1.68-.012-2.52.006a4.456,4.456,0,0,0-4.408,4.42c-.025,1.539-.005,3.08-.008,4.619a1.079,1.079,0,0,1-.729,1.081,1.052,1.052,0,0,1-1.378-1c-.008-1.08-.012-2.16,0-3.239a21.01,21.01,0,0,1,.081-2.315,6.508,6.508,0,0,1,5.1-5.522c.324-.069.654-.11.981-.164Z" transform="translate(-927.724 -2314.26)"/>
</svg>
