<svg id="Group_17" data-name="Group 17" xmlns="http://www.w3.org/2000/svg" xmlns:xlink="http://www.w3.org/1999/xlink" width="357.274" height="23.98" viewBox="0 0 357.274 23.98">
  <defs>
    <style>
      .cls-1 {
        fill: url(#linear-gradient);
      }

      .cls-2 {
        opacity: 0.999;
      }

      .cls-3 {
        fill: #bfdbf2;
      }
    </style>
    <linearGradient id="linear-gradient" x1="0.349" y1="0.5" x2="1.2" y2="1" gradientUnits="objectBoundingBox">
      <stop offset="0" stop-color="#449fe7"/>
      <stop offset="1" stop-color="#357cb4"/>
    </linearGradient>
  </defs>
  <path id="Path_4" data-name="Path 4" class="cls-1" d="M32.726,4.72H3.9A3.9,3.9,0,0,0,0,8.622V24.59a3.9,3.9,0,0,0,3.9,3.9H32.726a3.9,3.9,0,0,0,3.9-3.9V8.622A3.931,3.931,0,0,0,32.726,4.72ZM5.053,11.137a1.137,1.137,0,0,1,1.13-1.13H30.445a1.13,1.13,0,0,1,0,2.26H6.183A1.124,1.124,0,0,1,5.053,11.137ZM15.564,23.929H6.183a.746.746,0,0,1,0-1.492h9.381a.742.742,0,0,1,.746.746A.755.755,0,0,1,15.564,23.929Zm0-4.285H6.183a.746.746,0,0,1,0-1.492h9.381a.742.742,0,0,1,.746.746A.755.755,0,0,1,15.564,19.644Zm13.965,4.328a2.9,2.9,0,0,1-2.068-.853,2.9,2.9,0,0,1-2.068.853,2.963,2.963,0,1,1,0-5.927,2.9,2.9,0,0,1,2.068.853,2.9,2.9,0,0,1,2.068-.853,2.963,2.963,0,1,1,0,5.927Z" transform="translate(94.326 -4.72)"/>
  <g id="Group_14" data-name="Group 14" class="cls-2" transform="translate(0 0)">
    <path id="Path_17" data-name="Path 17" class="cls-3" d="M7.446,11.069A5.535,5.535,0,1,0,1.92,5.526h0A5.553,5.553,0,0,0,7.446,11.069Z" transform="translate(1.547)"/>
    <path id="Path_18" data-name="Path 18" class="cls-3" d="M2.366,18.486H15.638A2.374,2.374,0,0,0,18,16.121v-.542A9,9,0,0,0,0,15.6v.542a2.358,2.358,0,0,0,2.366,2.347Z" transform="translate(0 5.494)"/>
  </g>
  <g id="Group_15" data-name="Group 15" transform="translate(206.787 0)">
    <path id="Path_19" data-name="Path 19" class="cls-3" d="M27.152,16.974a1.7,1.7,0,0,1-1.7,1.7H5.784L7.99,20.861a1.706,1.706,0,0,1,.017,2.393l-.017.017a1.706,1.706,0,0,1-2.393.017l-.017-.017L.489,18.179a1.96,1.96,0,0,1-.356-.56,1.7,1.7,0,0,1,0-1.29,1.429,1.429,0,0,1,.356-.56L5.58,10.677a1.7,1.7,0,0,1,2.41,2.41L5.784,15.277H25.455A1.7,1.7,0,0,1,27.152,16.974ZM37.2,7.436a1.7,1.7,0,0,0,0-1.29,1.96,1.96,0,0,0-.356-.56L31.752.494a1.7,1.7,0,0,0-2.41,2.41l2.206,2.189H11.877a1.7,1.7,0,1,0,0,3.394H31.548l-2.206,2.189a1.706,1.706,0,0,0-.017,2.393l.017.017a1.706,1.706,0,0,0,2.393.017l.017-.017L36.843,8A1.584,1.584,0,0,0,37.2,7.436Z" transform="translate(-0.005 0.002)"/>
  </g>
  <g id="Group_16" data-name="Group 16" transform="translate(320.499 0.487)">
    <path id="Path_20" data-name="Path 20" class="cls-3" d="M24.458,11.747a4.926,4.926,0,0,1,5.161-4.633h4.689C34.291,3.172,30.757,0,26.365,0H4.916A4.689,4.689,0,0,0,0,4.413V19.08a4.679,4.679,0,0,0,4.916,4.413h21.4c4.391,0,7.925-3.172,7.925-7.114H29.567A4.88,4.88,0,0,1,24.458,11.747Z"/>
    <path id="Path_21" data-name="Path 21" class="cls-3" d="M22.044,5.05H18.306a3.816,3.816,0,0,0,0,7.632h3.738A2.747,2.747,0,0,0,25,10.232v-2.7A2.691,2.691,0,0,0,22.044,5.05Zm-3.3,5.481A1.633,1.633,0,1,1,20.379,8.9,1.632,1.632,0,0,1,18.746,10.531Z" transform="translate(11.778 2.881)"/>
  </g>
</svg>
