<svg xmlns="http://www.w3.org/2000/svg" width="12.793" height="12.793" viewBox="0 0 12.793 12.793">
  <defs>
    <style>
      .cls-1 {
        fill: none;
      }

      .cls-2, .cls-3 {
        stroke: none;
      }

      .cls-3 {
        fill: #fff;
      }
    </style>
  </defs>
  <g id="Path_24" data-name="Path 24" class="cls-1" transform="translate(0 6.397) rotate(-45)">
    <path class="cls-2" d="M.1.1S5.209-.585,7.42,1.626s1.526,7.32,1.526,7.32-5.108.686-7.32-1.526S.1.1.1.1Z"/>
    <path class="cls-3" d="M 1.89734935760498 1 C 1.568028450012207 1 1.269543647766113 1.010688781738281 1.019288063049316 1.024763107299805 C 0.9254865646362305 2.64862060546875 1.053044319152832 5.433124542236328 2.333129405975342 6.713210105895996 C 3.192809581756592 7.572890281677246 4.903109550476074 8.046339988708496 7.148989677429199 8.046339988708496 C 7.478310585021973 8.046339988708496 7.776795387268066 8.035651206970215 8.027050971984863 8.021576881408691 C 8.120852470397949 6.397719383239746 7.993294715881348 3.613215446472168 6.713209629058838 2.3331298828125 C 5.853529453277588 1.473450183868408 4.143229484558105 1 1.89734935760498 1 M 1.897349834442139 9.5367431640625e-07 C 3.587203979492188 9.5367431640625e-07 6.055514335632324 0.2612152099609375 7.420319557189941 1.626019954681396 C 9.631649017333984 3.837349891662598 8.945829391479492 8.945830345153809 8.945829391479492 8.945830345153809 C 8.945829391479492 8.945830345153809 8.197126388549805 9.04633903503418 7.148989200592041 9.04633903503418 C 5.459135055541992 9.04633903503418 2.990824699401855 8.785124778747559 1.626019477844238 7.4203200340271 C -0.5853109359741211 5.208990097045898 0.1005096435546875 0.1005096435546875 0.1005096435546875 0.1005096435546875 C 0.1005096435546875 0.1005096435546875 0.849212646484375 9.5367431640625e-07 1.897349834442139 9.5367431640625e-07 Z"/>
  </g>
</svg>
